<mxfile host="app.diagrams.net" modified="2024-03-04T04:16:59.398Z" agent="Mozilla/5.0 (Windows NT 10.0; Win64; x64) AppleWebKit/537.36 (KHTML, like Gecko) Chrome/122.0.0.0 Safari/537.36" etag="LSHwxCF5AJwI3Sz390C1" version="22.1.21" type="device">
  <diagram id="C5RBs43oDa-KdzZeNtuy" name="Page-1">
    <mxGraphModel dx="2868" dy="1476" grid="1" gridSize="10" guides="1" tooltips="1" connect="1" arrows="1" fold="1" page="1" pageScale="1" pageWidth="827" pageHeight="1169" math="0" shadow="0">
      <root>
        <mxCell id="WIyWlLk6GJQsqaUBKTNV-0" />
        <mxCell id="WIyWlLk6GJQsqaUBKTNV-1" parent="WIyWlLk6GJQsqaUBKTNV-0" />
        <mxCell id="bXuiNuhQnNFk2pUVL0_R-73" value="" style="rounded=0;whiteSpace=wrap;html=1;" parent="WIyWlLk6GJQsqaUBKTNV-1" vertex="1">
          <mxGeometry x="470" y="251" width="350" height="579" as="geometry" />
        </mxCell>
        <mxCell id="bXuiNuhQnNFk2pUVL0_R-35" value="" style="rounded=0;whiteSpace=wrap;html=1;" parent="WIyWlLk6GJQsqaUBKTNV-1" vertex="1">
          <mxGeometry x="20" y="251" width="330" height="579" as="geometry" />
        </mxCell>
        <mxCell id="bXuiNuhQnNFk2pUVL0_R-2" style="edgeStyle=orthogonalEdgeStyle;rounded=0;orthogonalLoop=1;jettySize=auto;html=1;entryX=0.5;entryY=0;entryDx=0;entryDy=0;" parent="WIyWlLk6GJQsqaUBKTNV-1" source="WIyWlLk6GJQsqaUBKTNV-3" target="WIyWlLk6GJQsqaUBKTNV-6" edge="1">
          <mxGeometry relative="1" as="geometry" />
        </mxCell>
        <mxCell id="WIyWlLk6GJQsqaUBKTNV-3" value="Start" style="rounded=1;whiteSpace=wrap;html=1;fontSize=12;glass=0;strokeWidth=1;shadow=0;" parent="WIyWlLk6GJQsqaUBKTNV-1" vertex="1">
          <mxGeometry x="40" y="40" width="120" height="40" as="geometry" />
        </mxCell>
        <mxCell id="WIyWlLk6GJQsqaUBKTNV-4" value="Yes" style="rounded=0;html=1;jettySize=auto;orthogonalLoop=1;fontSize=11;endArrow=classic;endFill=1;endSize=8;strokeWidth=1;shadow=0;labelBackgroundColor=none;edgeStyle=orthogonalEdgeStyle;entryX=0.5;entryY=0;entryDx=0;entryDy=0;" parent="WIyWlLk6GJQsqaUBKTNV-1" source="WIyWlLk6GJQsqaUBKTNV-6" target="WIyWlLk6GJQsqaUBKTNV-12" edge="1">
          <mxGeometry x="-0.5" y="20" relative="1" as="geometry">
            <mxPoint as="offset" />
            <mxPoint x="100" y="300" as="targetPoint" />
          </mxGeometry>
        </mxCell>
        <mxCell id="WIyWlLk6GJQsqaUBKTNV-5" value="No" style="edgeStyle=orthogonalEdgeStyle;rounded=0;html=1;jettySize=auto;orthogonalLoop=1;fontSize=11;endArrow=classic;endFill=1;endSize=8;strokeWidth=1;shadow=0;labelBackgroundColor=none;entryX=1;entryY=0.5;entryDx=0;entryDy=0;exitX=1;exitY=0.5;exitDx=0;exitDy=0;" parent="WIyWlLk6GJQsqaUBKTNV-1" source="WIyWlLk6GJQsqaUBKTNV-6" target="WIyWlLk6GJQsqaUBKTNV-3" edge="1">
          <mxGeometry y="10" relative="1" as="geometry">
            <mxPoint as="offset" />
            <mxPoint x="150" y="220" as="sourcePoint" />
            <mxPoint x="210" y="100" as="targetPoint" />
            <Array as="points">
              <mxPoint x="180" y="175" />
              <mxPoint x="180" y="60" />
            </Array>
          </mxGeometry>
        </mxCell>
        <mxCell id="WIyWlLk6GJQsqaUBKTNV-6" value="Connection with Arduino, camera" style="rhombus;whiteSpace=wrap;html=1;shadow=0;fontFamily=Helvetica;fontSize=12;align=center;strokeWidth=1;spacing=6;spacingTop=-4;" parent="WIyWlLk6GJQsqaUBKTNV-1" vertex="1">
          <mxGeometry x="30" y="130" width="140" height="90" as="geometry" />
        </mxCell>
        <mxCell id="bXuiNuhQnNFk2pUVL0_R-26" style="edgeStyle=orthogonalEdgeStyle;rounded=0;orthogonalLoop=1;jettySize=auto;html=1;entryX=0.5;entryY=0;entryDx=0;entryDy=0;" parent="WIyWlLk6GJQsqaUBKTNV-1" source="WIyWlLk6GJQsqaUBKTNV-11" target="bXuiNuhQnNFk2pUVL0_R-23" edge="1">
          <mxGeometry relative="1" as="geometry" />
        </mxCell>
        <mxCell id="WIyWlLk6GJQsqaUBKTNV-11" value="Find and show rocket position" style="rounded=0;whiteSpace=wrap;html=1;fontSize=12;glass=0;strokeWidth=1;shadow=0;" parent="WIyWlLk6GJQsqaUBKTNV-1" vertex="1">
          <mxGeometry x="40" y="351" width="120" height="40" as="geometry" />
        </mxCell>
        <mxCell id="bXuiNuhQnNFk2pUVL0_R-0" value="" style="edgeStyle=orthogonalEdgeStyle;rounded=0;orthogonalLoop=1;jettySize=auto;html=1;" parent="WIyWlLk6GJQsqaUBKTNV-1" source="WIyWlLk6GJQsqaUBKTNV-12" target="WIyWlLk6GJQsqaUBKTNV-11" edge="1">
          <mxGeometry relative="1" as="geometry" />
        </mxCell>
        <mxCell id="WIyWlLk6GJQsqaUBKTNV-12" value="Receive frame" style="rounded=0;whiteSpace=wrap;html=1;fontSize=12;glass=0;strokeWidth=1;shadow=0;" parent="WIyWlLk6GJQsqaUBKTNV-1" vertex="1">
          <mxGeometry x="40" y="271" width="120" height="40" as="geometry" />
        </mxCell>
        <mxCell id="bXuiNuhQnNFk2pUVL0_R-5" style="edgeStyle=orthogonalEdgeStyle;rounded=0;orthogonalLoop=1;jettySize=auto;html=1;entryX=0.5;entryY=0;entryDx=0;entryDy=0;" parent="WIyWlLk6GJQsqaUBKTNV-1" source="bXuiNuhQnNFk2pUVL0_R-3" target="bXuiNuhQnNFk2pUVL0_R-14" edge="1">
          <mxGeometry relative="1" as="geometry">
            <mxPoint x="100" y="631" as="targetPoint" />
            <Array as="points" />
          </mxGeometry>
        </mxCell>
        <mxCell id="bXuiNuhQnNFk2pUVL0_R-6" value="No" style="edgeLabel;html=1;align=center;verticalAlign=middle;resizable=0;points=[];" parent="bXuiNuhQnNFk2pUVL0_R-5" vertex="1" connectable="0">
          <mxGeometry x="-0.1603" y="2" relative="1" as="geometry">
            <mxPoint x="8" y="-11" as="offset" />
          </mxGeometry>
        </mxCell>
        <mxCell id="bXuiNuhQnNFk2pUVL0_R-9" style="edgeStyle=orthogonalEdgeStyle;rounded=0;orthogonalLoop=1;jettySize=auto;html=1;exitX=1;exitY=0.5;exitDx=0;exitDy=0;entryX=0;entryY=0.5;entryDx=0;entryDy=0;" parent="WIyWlLk6GJQsqaUBKTNV-1" source="bXuiNuhQnNFk2pUVL0_R-3" target="bXuiNuhQnNFk2pUVL0_R-8" edge="1">
          <mxGeometry relative="1" as="geometry" />
        </mxCell>
        <mxCell id="bXuiNuhQnNFk2pUVL0_R-17" value="Yes" style="edgeLabel;html=1;align=center;verticalAlign=middle;resizable=0;points=[];" parent="bXuiNuhQnNFk2pUVL0_R-9" vertex="1" connectable="0">
          <mxGeometry x="-0.1524" relative="1" as="geometry">
            <mxPoint x="-3" y="-10" as="offset" />
          </mxGeometry>
        </mxCell>
        <mxCell id="bXuiNuhQnNFk2pUVL0_R-3" value="WASD pressed?" style="rhombus;whiteSpace=wrap;html=1;shadow=0;fontFamily=Helvetica;fontSize=12;align=center;strokeWidth=1;spacing=6;spacingTop=-4;" parent="WIyWlLk6GJQsqaUBKTNV-1" vertex="1">
          <mxGeometry x="30" y="521" width="140" height="60" as="geometry" />
        </mxCell>
        <mxCell id="bXuiNuhQnNFk2pUVL0_R-10" style="edgeStyle=orthogonalEdgeStyle;rounded=0;orthogonalLoop=1;jettySize=auto;html=1;" parent="WIyWlLk6GJQsqaUBKTNV-1" source="bXuiNuhQnNFk2pUVL0_R-8" edge="1">
          <mxGeometry relative="1" as="geometry">
            <mxPoint x="100" y="611" as="targetPoint" />
            <Array as="points">
              <mxPoint x="245" y="611" />
            </Array>
          </mxGeometry>
        </mxCell>
        <mxCell id="bXuiNuhQnNFk2pUVL0_R-8" value="Corresponding motor speed change" style="rounded=0;whiteSpace=wrap;html=1;fontSize=12;glass=0;strokeWidth=1;shadow=0;" parent="WIyWlLk6GJQsqaUBKTNV-1" vertex="1">
          <mxGeometry x="200" y="526" width="90" height="50" as="geometry" />
        </mxCell>
        <mxCell id="bXuiNuhQnNFk2pUVL0_R-11" style="edgeStyle=orthogonalEdgeStyle;rounded=0;orthogonalLoop=1;jettySize=auto;html=1;entryX=0.5;entryY=0;entryDx=0;entryDy=0;" parent="WIyWlLk6GJQsqaUBKTNV-1" source="bXuiNuhQnNFk2pUVL0_R-14" target="bXuiNuhQnNFk2pUVL0_R-31" edge="1">
          <mxGeometry relative="1" as="geometry">
            <mxPoint x="100" y="751" as="targetPoint" />
            <Array as="points" />
          </mxGeometry>
        </mxCell>
        <mxCell id="bXuiNuhQnNFk2pUVL0_R-12" value="No" style="edgeLabel;html=1;align=center;verticalAlign=middle;resizable=0;points=[];" parent="bXuiNuhQnNFk2pUVL0_R-11" vertex="1" connectable="0">
          <mxGeometry x="-0.1603" y="2" relative="1" as="geometry">
            <mxPoint x="8" y="-11" as="offset" />
          </mxGeometry>
        </mxCell>
        <mxCell id="bXuiNuhQnNFk2pUVL0_R-13" style="edgeStyle=orthogonalEdgeStyle;rounded=0;orthogonalLoop=1;jettySize=auto;html=1;exitX=1;exitY=0.5;exitDx=0;exitDy=0;entryX=0;entryY=0.5;entryDx=0;entryDy=0;" parent="WIyWlLk6GJQsqaUBKTNV-1" source="bXuiNuhQnNFk2pUVL0_R-14" target="bXuiNuhQnNFk2pUVL0_R-16" edge="1">
          <mxGeometry relative="1" as="geometry" />
        </mxCell>
        <mxCell id="bXuiNuhQnNFk2pUVL0_R-19" value="Yes" style="edgeLabel;html=1;align=center;verticalAlign=middle;resizable=0;points=[];" parent="bXuiNuhQnNFk2pUVL0_R-13" vertex="1" connectable="0">
          <mxGeometry x="0.0063" y="1" relative="1" as="geometry">
            <mxPoint y="-14" as="offset" />
          </mxGeometry>
        </mxCell>
        <mxCell id="bXuiNuhQnNFk2pUVL0_R-14" value="Limit switch hit?" style="rhombus;whiteSpace=wrap;html=1;shadow=0;fontFamily=Helvetica;fontSize=12;align=center;strokeWidth=1;spacing=6;spacingTop=-4;" parent="WIyWlLk6GJQsqaUBKTNV-1" vertex="1">
          <mxGeometry x="30" y="636" width="140" height="60" as="geometry" />
        </mxCell>
        <mxCell id="bXuiNuhQnNFk2pUVL0_R-15" style="edgeStyle=orthogonalEdgeStyle;rounded=0;orthogonalLoop=1;jettySize=auto;html=1;" parent="WIyWlLk6GJQsqaUBKTNV-1" source="bXuiNuhQnNFk2pUVL0_R-16" edge="1">
          <mxGeometry relative="1" as="geometry">
            <mxPoint x="100" y="721" as="targetPoint" />
            <Array as="points">
              <mxPoint x="245" y="721" />
              <mxPoint x="100" y="721" />
            </Array>
          </mxGeometry>
        </mxCell>
        <mxCell id="bXuiNuhQnNFk2pUVL0_R-16" value="Corresponding motor speed set to zero" style="rounded=0;whiteSpace=wrap;html=1;fontSize=12;glass=0;strokeWidth=1;shadow=0;" parent="WIyWlLk6GJQsqaUBKTNV-1" vertex="1">
          <mxGeometry x="200" y="641" width="90" height="50" as="geometry" />
        </mxCell>
        <mxCell id="bXuiNuhQnNFk2pUVL0_R-20" value="No" style="edgeLabel;html=1;align=center;verticalAlign=middle;resizable=0;points=[];" parent="WIyWlLk6GJQsqaUBKTNV-1" vertex="1" connectable="0">
          <mxGeometry x="110" y="492.7586206896551" as="geometry" />
        </mxCell>
        <mxCell id="bXuiNuhQnNFk2pUVL0_R-21" style="edgeStyle=orthogonalEdgeStyle;rounded=0;orthogonalLoop=1;jettySize=auto;html=1;exitX=1;exitY=0.5;exitDx=0;exitDy=0;entryX=0;entryY=0.5;entryDx=0;entryDy=0;" parent="WIyWlLk6GJQsqaUBKTNV-1" source="bXuiNuhQnNFk2pUVL0_R-23" target="bXuiNuhQnNFk2pUVL0_R-24" edge="1">
          <mxGeometry relative="1" as="geometry" />
        </mxCell>
        <mxCell id="bXuiNuhQnNFk2pUVL0_R-22" value="Yes" style="edgeLabel;html=1;align=center;verticalAlign=middle;resizable=0;points=[];" parent="bXuiNuhQnNFk2pUVL0_R-21" vertex="1" connectable="0">
          <mxGeometry x="-0.1524" relative="1" as="geometry">
            <mxPoint x="-3" y="-10" as="offset" />
          </mxGeometry>
        </mxCell>
        <mxCell id="bXuiNuhQnNFk2pUVL0_R-25" style="edgeStyle=orthogonalEdgeStyle;rounded=0;orthogonalLoop=1;jettySize=auto;html=1;entryX=0.5;entryY=0;entryDx=0;entryDy=0;" parent="WIyWlLk6GJQsqaUBKTNV-1" source="bXuiNuhQnNFk2pUVL0_R-23" target="bXuiNuhQnNFk2pUVL0_R-3" edge="1">
          <mxGeometry relative="1" as="geometry" />
        </mxCell>
        <mxCell id="bXuiNuhQnNFk2pUVL0_R-23" value="Q pressed?" style="rhombus;whiteSpace=wrap;html=1;shadow=0;fontFamily=Helvetica;fontSize=12;align=center;strokeWidth=1;spacing=6;spacingTop=-4;" parent="WIyWlLk6GJQsqaUBKTNV-1" vertex="1">
          <mxGeometry x="30" y="421" width="140" height="60" as="geometry" />
        </mxCell>
        <mxCell id="bXuiNuhQnNFk2pUVL0_R-24" value="Stop" style="rounded=1;whiteSpace=wrap;html=1;fontSize=12;glass=0;strokeWidth=1;shadow=0;" parent="WIyWlLk6GJQsqaUBKTNV-1" vertex="1">
          <mxGeometry x="200" y="426" width="90" height="50" as="geometry" />
        </mxCell>
        <mxCell id="bXuiNuhQnNFk2pUVL0_R-27" style="edgeStyle=orthogonalEdgeStyle;rounded=0;orthogonalLoop=1;jettySize=auto;html=1;exitX=0.5;exitY=1;exitDx=0;exitDy=0;entryX=0.5;entryY=1;entryDx=0;entryDy=0;" parent="WIyWlLk6GJQsqaUBKTNV-1" source="bXuiNuhQnNFk2pUVL0_R-31" target="bXuiNuhQnNFk2pUVL0_R-37" edge="1">
          <mxGeometry relative="1" as="geometry">
            <mxPoint x="420" y="300" as="targetPoint" />
            <Array as="points">
              <mxPoint x="100" y="860" />
              <mxPoint x="414" y="860" />
            </Array>
          </mxGeometry>
        </mxCell>
        <mxCell id="bXuiNuhQnNFk2pUVL0_R-28" value="Yes" style="edgeLabel;html=1;align=center;verticalAlign=middle;resizable=0;points=[];" parent="bXuiNuhQnNFk2pUVL0_R-27" vertex="1" connectable="0">
          <mxGeometry x="-0.1603" y="2" relative="1" as="geometry">
            <mxPoint x="-313" y="-39" as="offset" />
          </mxGeometry>
        </mxCell>
        <mxCell id="bXuiNuhQnNFk2pUVL0_R-29" style="edgeStyle=orthogonalEdgeStyle;rounded=0;orthogonalLoop=1;jettySize=auto;html=1;exitX=1;exitY=0.5;exitDx=0;exitDy=0;" parent="WIyWlLk6GJQsqaUBKTNV-1" source="bXuiNuhQnNFk2pUVL0_R-31" edge="1">
          <mxGeometry relative="1" as="geometry">
            <mxPoint x="100" y="261" as="targetPoint" />
            <Array as="points">
              <mxPoint x="330" y="781" />
              <mxPoint x="330" y="261" />
            </Array>
          </mxGeometry>
        </mxCell>
        <mxCell id="bXuiNuhQnNFk2pUVL0_R-34" value="No" style="edgeLabel;html=1;align=center;verticalAlign=middle;resizable=0;points=[];" parent="bXuiNuhQnNFk2pUVL0_R-29" vertex="1" connectable="0">
          <mxGeometry x="-0.2444" y="2" relative="1" as="geometry">
            <mxPoint y="-8" as="offset" />
          </mxGeometry>
        </mxCell>
        <mxCell id="bXuiNuhQnNFk2pUVL0_R-31" value="Space key hit?" style="rhombus;whiteSpace=wrap;html=1;shadow=0;fontFamily=Helvetica;fontSize=12;align=center;strokeWidth=1;spacing=6;spacingTop=-4;" parent="WIyWlLk6GJQsqaUBKTNV-1" vertex="1">
          <mxGeometry x="30" y="751" width="140" height="60" as="geometry" />
        </mxCell>
        <mxCell id="bXuiNuhQnNFk2pUVL0_R-36" value="&lt;b&gt;&lt;u&gt;&lt;font style=&quot;font-size: 16px;&quot;&gt;Manual&lt;/font&gt;&lt;/u&gt;&lt;/b&gt;" style="text;html=1;align=center;verticalAlign=middle;resizable=0;points=[];autosize=1;strokeColor=none;fillColor=none;" parent="WIyWlLk6GJQsqaUBKTNV-1" vertex="1">
          <mxGeometry x="280" y="221" width="80" height="30" as="geometry" />
        </mxCell>
        <mxCell id="bXuiNuhQnNFk2pUVL0_R-42" style="edgeStyle=orthogonalEdgeStyle;rounded=0;orthogonalLoop=1;jettySize=auto;html=1;entryX=0;entryY=0.5;entryDx=0;entryDy=0;" parent="WIyWlLk6GJQsqaUBKTNV-1" source="bXuiNuhQnNFk2pUVL0_R-37" target="bXuiNuhQnNFk2pUVL0_R-41" edge="1">
          <mxGeometry relative="1" as="geometry" />
        </mxCell>
        <mxCell id="bXuiNuhQnNFk2pUVL0_R-37" value="Set vertical motor to initial guess" style="whiteSpace=wrap;html=1;" parent="WIyWlLk6GJQsqaUBKTNV-1" vertex="1">
          <mxGeometry x="369" y="277" width="90" height="49" as="geometry" />
        </mxCell>
        <mxCell id="bXuiNuhQnNFk2pUVL0_R-56" style="edgeStyle=orthogonalEdgeStyle;rounded=0;orthogonalLoop=1;jettySize=auto;html=1;entryX=0.5;entryY=0;entryDx=0;entryDy=0;" parent="WIyWlLk6GJQsqaUBKTNV-1" source="bXuiNuhQnNFk2pUVL0_R-39" target="bXuiNuhQnNFk2pUVL0_R-43" edge="1">
          <mxGeometry relative="1" as="geometry" />
        </mxCell>
        <mxCell id="bXuiNuhQnNFk2pUVL0_R-39" value="Find and show rocket position" style="rounded=0;whiteSpace=wrap;html=1;fontSize=12;glass=0;strokeWidth=1;shadow=0;" parent="WIyWlLk6GJQsqaUBKTNV-1" vertex="1">
          <mxGeometry x="650" y="446.5" width="120" height="40" as="geometry" />
        </mxCell>
        <mxCell id="bXuiNuhQnNFk2pUVL0_R-54" style="edgeStyle=orthogonalEdgeStyle;rounded=0;orthogonalLoop=1;jettySize=auto;html=1;entryX=0.5;entryY=0;entryDx=0;entryDy=0;" parent="WIyWlLk6GJQsqaUBKTNV-1" source="bXuiNuhQnNFk2pUVL0_R-41" target="bXuiNuhQnNFk2pUVL0_R-49" edge="1">
          <mxGeometry relative="1" as="geometry" />
        </mxCell>
        <mxCell id="bXuiNuhQnNFk2pUVL0_R-41" value="Receive frame" style="rounded=0;whiteSpace=wrap;html=1;fontSize=12;glass=0;strokeWidth=1;shadow=0;" parent="WIyWlLk6GJQsqaUBKTNV-1" vertex="1">
          <mxGeometry x="650" y="281.5" width="120" height="40" as="geometry" />
        </mxCell>
        <mxCell id="bXuiNuhQnNFk2pUVL0_R-59" style="edgeStyle=orthogonalEdgeStyle;rounded=0;orthogonalLoop=1;jettySize=auto;html=1;entryX=0.5;entryY=0;entryDx=0;entryDy=0;" parent="WIyWlLk6GJQsqaUBKTNV-1" source="bXuiNuhQnNFk2pUVL0_R-43" target="bXuiNuhQnNFk2pUVL0_R-57" edge="1">
          <mxGeometry relative="1" as="geometry" />
        </mxCell>
        <mxCell id="bXuiNuhQnNFk2pUVL0_R-43" value="Calculate and set new motor speeds with PID" style="rounded=0;whiteSpace=wrap;html=1;fontSize=12;glass=0;strokeWidth=1;shadow=0;" parent="WIyWlLk6GJQsqaUBKTNV-1" vertex="1">
          <mxGeometry x="650" y="536.5" width="120" height="54" as="geometry" />
        </mxCell>
        <mxCell id="bXuiNuhQnNFk2pUVL0_R-52" style="edgeStyle=orthogonalEdgeStyle;rounded=0;orthogonalLoop=1;jettySize=auto;html=1;entryX=1;entryY=0.5;entryDx=0;entryDy=0;" parent="WIyWlLk6GJQsqaUBKTNV-1" source="bXuiNuhQnNFk2pUVL0_R-49" target="bXuiNuhQnNFk2pUVL0_R-50" edge="1">
          <mxGeometry relative="1" as="geometry" />
        </mxCell>
        <mxCell id="bXuiNuhQnNFk2pUVL0_R-65" value="Yes" style="edgeLabel;html=1;align=center;verticalAlign=middle;resizable=0;points=[];" parent="bXuiNuhQnNFk2pUVL0_R-52" vertex="1" connectable="0">
          <mxGeometry x="0.1667" y="3" relative="1" as="geometry">
            <mxPoint x="15" y="-14" as="offset" />
          </mxGeometry>
        </mxCell>
        <mxCell id="bXuiNuhQnNFk2pUVL0_R-55" style="edgeStyle=orthogonalEdgeStyle;rounded=0;orthogonalLoop=1;jettySize=auto;html=1;entryX=0.5;entryY=0;entryDx=0;entryDy=0;" parent="WIyWlLk6GJQsqaUBKTNV-1" source="bXuiNuhQnNFk2pUVL0_R-49" target="bXuiNuhQnNFk2pUVL0_R-39" edge="1">
          <mxGeometry relative="1" as="geometry" />
        </mxCell>
        <mxCell id="bXuiNuhQnNFk2pUVL0_R-49" value="Q pressed?" style="rhombus;whiteSpace=wrap;html=1;shadow=0;fontFamily=Helvetica;fontSize=12;align=center;strokeWidth=1;spacing=6;spacingTop=-4;" parent="WIyWlLk6GJQsqaUBKTNV-1" vertex="1">
          <mxGeometry x="640" y="351.5" width="140" height="60" as="geometry" />
        </mxCell>
        <mxCell id="bXuiNuhQnNFk2pUVL0_R-50" value="Stop" style="rounded=1;whiteSpace=wrap;html=1;fontSize=12;glass=0;strokeWidth=1;shadow=0;" parent="WIyWlLk6GJQsqaUBKTNV-1" vertex="1">
          <mxGeometry x="490" y="356.5" width="90" height="50" as="geometry" />
        </mxCell>
        <mxCell id="bXuiNuhQnNFk2pUVL0_R-60" style="edgeStyle=orthogonalEdgeStyle;rounded=0;orthogonalLoop=1;jettySize=auto;html=1;entryX=1;entryY=0.5;entryDx=0;entryDy=0;" parent="WIyWlLk6GJQsqaUBKTNV-1" source="bXuiNuhQnNFk2pUVL0_R-57" target="bXuiNuhQnNFk2pUVL0_R-62" edge="1">
          <mxGeometry relative="1" as="geometry">
            <mxPoint x="609.9999999999998" y="660.5" as="targetPoint" />
          </mxGeometry>
        </mxCell>
        <mxCell id="bXuiNuhQnNFk2pUVL0_R-63" value="Yes" style="edgeLabel;html=1;align=center;verticalAlign=middle;resizable=0;points=[];" parent="bXuiNuhQnNFk2pUVL0_R-60" vertex="1" connectable="0">
          <mxGeometry x="-0.2224" y="3" relative="1" as="geometry">
            <mxPoint y="-12" as="offset" />
          </mxGeometry>
        </mxCell>
        <mxCell id="bXuiNuhQnNFk2pUVL0_R-66" style="edgeStyle=orthogonalEdgeStyle;rounded=0;orthogonalLoop=1;jettySize=auto;html=1;entryX=0.5;entryY=0;entryDx=0;entryDy=0;" parent="WIyWlLk6GJQsqaUBKTNV-1" source="bXuiNuhQnNFk2pUVL0_R-57" target="bXuiNuhQnNFk2pUVL0_R-58" edge="1">
          <mxGeometry relative="1" as="geometry" />
        </mxCell>
        <mxCell id="bXuiNuhQnNFk2pUVL0_R-67" value="No" style="edgeLabel;html=1;align=center;verticalAlign=middle;resizable=0;points=[];" parent="bXuiNuhQnNFk2pUVL0_R-66" vertex="1" connectable="0">
          <mxGeometry x="0.2889" y="-1" relative="1" as="geometry">
            <mxPoint x="-9" y="-3" as="offset" />
          </mxGeometry>
        </mxCell>
        <mxCell id="bXuiNuhQnNFk2pUVL0_R-57" value="Limit switch hit?" style="rhombus;whiteSpace=wrap;html=1;shadow=0;fontFamily=Helvetica;fontSize=12;align=center;strokeWidth=1;spacing=6;spacingTop=-4;" parent="WIyWlLk6GJQsqaUBKTNV-1" vertex="1">
          <mxGeometry x="640" y="630.5" width="140" height="60" as="geometry" />
        </mxCell>
        <mxCell id="bXuiNuhQnNFk2pUVL0_R-68" style="edgeStyle=orthogonalEdgeStyle;rounded=0;orthogonalLoop=1;jettySize=auto;html=1;" parent="WIyWlLk6GJQsqaUBKTNV-1" source="bXuiNuhQnNFk2pUVL0_R-58" edge="1">
          <mxGeometry relative="1" as="geometry">
            <mxPoint x="330" y="755.47" as="targetPoint" />
          </mxGeometry>
        </mxCell>
        <mxCell id="bXuiNuhQnNFk2pUVL0_R-69" value="Yes" style="edgeLabel;html=1;align=center;verticalAlign=middle;resizable=0;points=[];" parent="bXuiNuhQnNFk2pUVL0_R-68" vertex="1" connectable="0">
          <mxGeometry x="-0.6991" y="-2" relative="1" as="geometry">
            <mxPoint x="26" y="-7" as="offset" />
          </mxGeometry>
        </mxCell>
        <mxCell id="bXuiNuhQnNFk2pUVL0_R-70" style="edgeStyle=orthogonalEdgeStyle;rounded=0;orthogonalLoop=1;jettySize=auto;html=1;exitX=0.5;exitY=1;exitDx=0;exitDy=0;endArrow=none;endFill=0;" parent="WIyWlLk6GJQsqaUBKTNV-1" source="bXuiNuhQnNFk2pUVL0_R-58" edge="1">
          <mxGeometry relative="1" as="geometry">
            <mxPoint x="810" y="270.5" as="targetPoint" />
          </mxGeometry>
        </mxCell>
        <mxCell id="bXuiNuhQnNFk2pUVL0_R-72" value="No" style="edgeLabel;html=1;align=center;verticalAlign=middle;resizable=0;points=[];" parent="bXuiNuhQnNFk2pUVL0_R-70" vertex="1" connectable="0">
          <mxGeometry x="-0.8586" y="1" relative="1" as="geometry">
            <mxPoint x="-6" y="-14" as="offset" />
          </mxGeometry>
        </mxCell>
        <mxCell id="bXuiNuhQnNFk2pUVL0_R-58" value="Space key hit?" style="rhombus;whiteSpace=wrap;html=1;shadow=0;fontFamily=Helvetica;fontSize=12;align=center;strokeWidth=1;spacing=6;spacingTop=-4;" parent="WIyWlLk6GJQsqaUBKTNV-1" vertex="1">
          <mxGeometry x="640" y="725.5" width="140" height="60" as="geometry" />
        </mxCell>
        <mxCell id="bXuiNuhQnNFk2pUVL0_R-64" style="edgeStyle=orthogonalEdgeStyle;rounded=0;orthogonalLoop=1;jettySize=auto;html=1;" parent="WIyWlLk6GJQsqaUBKTNV-1" source="bXuiNuhQnNFk2pUVL0_R-62" edge="1">
          <mxGeometry relative="1" as="geometry">
            <mxPoint x="330" y="660.47" as="targetPoint" />
          </mxGeometry>
        </mxCell>
        <mxCell id="bXuiNuhQnNFk2pUVL0_R-62" value="Corresponding motor speed set to zero" style="rounded=0;whiteSpace=wrap;html=1;fontSize=12;glass=0;strokeWidth=1;shadow=0;" parent="WIyWlLk6GJQsqaUBKTNV-1" vertex="1">
          <mxGeometry x="490" y="635.5" width="100" height="50" as="geometry" />
        </mxCell>
        <mxCell id="bXuiNuhQnNFk2pUVL0_R-71" value="" style="edgeStyle=none;orthogonalLoop=1;jettySize=auto;html=1;rounded=0;" parent="WIyWlLk6GJQsqaUBKTNV-1" edge="1">
          <mxGeometry width="100" relative="1" as="geometry">
            <mxPoint x="810" y="270.5" as="sourcePoint" />
            <mxPoint x="640" y="300.5" as="targetPoint" />
            <Array as="points">
              <mxPoint x="640" y="270.5" />
            </Array>
          </mxGeometry>
        </mxCell>
        <mxCell id="bXuiNuhQnNFk2pUVL0_R-74" value="&lt;b&gt;&lt;u&gt;&lt;font style=&quot;font-size: 16px;&quot;&gt;Automatic&lt;/font&gt;&lt;/u&gt;&lt;/b&gt;" style="text;html=1;align=center;verticalAlign=middle;resizable=0;points=[];autosize=1;strokeColor=none;fillColor=none;" parent="WIyWlLk6GJQsqaUBKTNV-1" vertex="1">
          <mxGeometry x="720" y="221" width="100" height="30" as="geometry" />
        </mxCell>
      </root>
    </mxGraphModel>
  </diagram>
</mxfile>
